<svg id="visual" viewBox="0 0 960 540" width="960" height="540" xmlns="http://www.w3.org/2000/svg" xmlns:xlink="http://www.w3.org/1999/xlink" version="1.1"><path d="M834 540L575 540L575 504L738 504L738 468L517 468L517 432L575 432L575 396L815 396L815 360L671 360L671 324L575 324L575 288L642 288L642 252L604 252L604 216L633 216L633 180L709 180L709 144L364 144L364 108L633 108L633 72L556 72L556 36L373 36L373 0L960 0L960 36L960 36L960 72L960 72L960 108L960 108L960 144L960 144L960 180L960 180L960 216L960 216L960 252L960 252L960 288L960 288L960 324L960 324L960 360L960 360L960 396L960 396L960 432L960 432L960 468L960 468L960 504L960 504L960 540L960 540Z" fill="#fa7268"></path><path d="M585 540L412 540L412 504L527 504L527 468L210 468L210 432L441 432L441 396L604 396L604 360L537 360L537 324L210 324L210 288L316 288L316 252L373 252L373 216L479 216L479 180L594 180L594 144L268 144L268 108L527 108L527 72L316 72L316 36L316 36L316 0L374 0L374 36L557 36L557 72L634 72L634 108L365 108L365 144L710 144L710 180L634 180L634 216L605 216L605 252L643 252L643 288L576 288L576 324L672 324L672 360L816 360L816 396L576 396L576 432L518 432L518 468L739 468L739 504L576 504L576 540L835 540Z" fill="#e45765"></path><path d="M354 540L229 540L229 504L287 504L287 468L153 468L153 432L287 432L287 396L527 396L527 360L345 360L345 324L133 324L133 288L258 288L258 252L143 252L143 216L325 216L325 180L527 180L527 144L201 144L201 108L345 108L345 72L124 72L124 36L191 36L191 0L317 0L317 36L317 36L317 72L528 72L528 108L269 108L269 144L595 144L595 180L480 180L480 216L374 216L374 252L317 252L317 288L211 288L211 324L538 324L538 360L605 360L605 396L442 396L442 432L211 432L211 468L528 468L528 504L413 504L413 540L586 540Z" fill="#cb3d62"></path><path d="M0 540L0 540L0 504L0 504L0 468L0 468L0 432L0 432L0 396L0 396L0 360L0 360L0 324L0 324L0 288L0 288L0 252L0 252L0 216L0 216L0 180L0 180L0 144L0 144L0 108L0 108L0 72L0 72L0 36L0 36L0 0L192 0L192 36L125 36L125 72L346 72L346 108L202 108L202 144L528 144L528 180L326 180L326 216L144 216L144 252L259 252L259 288L134 288L134 324L346 324L346 360L528 360L528 396L288 396L288 432L154 432L154 468L288 468L288 504L230 504L230 540L355 540Z" fill="#b0235f"></path></svg>